<svg xmlns="http://www.w3.org/2000/svg" xmlns:xlink="http://www.w3.org/1999/xlink" contentStyleType="text/css" height="424px" preserveAspectRatio="none" style="width:1446px;height:424px;background:#FFFFFF;" version="1.1" viewBox="0 0 1446 424" width="1446px" zoomAndPan="magnify"><defs/><g><!--class DataFetcher--><g id="elem_DataFetcher"><rect codeLine="1" fill="#F1F1F1" height="96.8906" id="DataFetcher" rx="2.5" ry="2.5" style="stroke:#181818;stroke-width:0.5;" width="593.0957" x="7" y="188.33"/><ellipse cx="256.0366" cy="204.33" fill="#ADD1B2" rx="11" ry="11" style="stroke:#181818;stroke-width:1.0;"/><path d="M259.0054,209.9706 Q258.4272,210.2675 257.7866,210.4081 Q257.146,210.5644 256.4429,210.5644 Q253.9429,210.5644 252.6147,208.9238 Q251.3022,207.2675 251.3022,204.1425 Q251.3022,201.0175 252.6147,199.3613 Q253.9429,197.705 256.4429,197.705 Q257.146,197.705 257.7866,197.8613 Q258.4429,198.0175 259.0054,198.3144 L259.0054,201.0331 Q258.3804,200.455 257.7866,200.1894 Q257.1929,199.9081 256.5679,199.9081 Q255.2241,199.9081 254.5366,200.9863 Q253.8491,202.0488 253.8491,204.1425 Q253.8491,206.2363 254.5366,207.3144 Q255.2241,208.3769 256.5679,208.3769 Q257.1929,208.3769 257.7866,208.1113 Q258.3804,207.83 259.0054,207.2519 L259.0054,209.9706 Z " fill="#000000"/><text fill="#000000" font-family="sans-serif" font-size="14" lengthAdjust="spacing" textLength="86.5225" x="276.5366" y="209.1767">DataFetcher</text><line style="stroke:#181818;stroke-width:0.5;" x1="8" x2="599.0957" y1="220.33" y2="220.33"/><rect fill="none" height="6" style="stroke:#C82930;stroke-width:1.0;" width="6" x="15" y="230.9784"/><text fill="#000000" font-family="sans-serif" font-size="14" lengthAdjust="spacing" textLength="104.3096" x="27" y="237.3251">api_key: String</text><line style="stroke:#181818;stroke-width:0.5;" x1="8" x2="599.0957" y1="244.6269" y2="244.6269"/><ellipse cx="18" cy="258.2753" fill="#84BE84" rx="3" ry="3" style="stroke:#038048;stroke-width:1.0;"/><text fill="#000000" font-family="sans-serif" font-size="14" lengthAdjust="spacing" textLength="275.8506" x="27" y="261.622">fetch_realtime_data(asset: Asset): float</text><ellipse cx="18" cy="274.5722" fill="#84BE84" rx="3" ry="3" style="stroke:#038048;stroke-width:1.0;"/><text fill="#000000" font-family="sans-serif" font-size="14" lengthAdjust="spacing" textLength="567.0957" x="27" y="277.9189">fetch_historical_data(asset: Asset, start_date: Date, end_date: Date): DataFrame</text></g><!--class PortfolioManager--><g id="elem_PortfolioManager"><rect codeLine="7" fill="#F1F1F1" height="96.8906" id="PortfolioManager" rx="2.5" ry="2.5" style="stroke:#181818;stroke-width:0.5;" width="258.1621" x="635.47" y="188.33"/><ellipse cx="700.5721" cy="204.33" fill="#ADD1B2" rx="11" ry="11" style="stroke:#181818;stroke-width:1.0;"/><path d="M703.5408,209.9706 Q702.9627,210.2675 702.3221,210.4081 Q701.6814,210.5644 700.9783,210.5644 Q698.4783,210.5644 697.1502,208.9238 Q695.8377,207.2675 695.8377,204.1425 Q695.8377,201.0175 697.1502,199.3613 Q698.4783,197.705 700.9783,197.705 Q701.6814,197.705 702.3221,197.8613 Q702.9783,198.0175 703.5408,198.3144 L703.5408,201.0331 Q702.9158,200.455 702.3221,200.1894 Q701.7283,199.9081 701.1033,199.9081 Q699.7596,199.9081 699.0721,200.9863 Q698.3846,202.0488 698.3846,204.1425 Q698.3846,206.2363 699.0721,207.3144 Q699.7596,208.3769 701.1033,208.3769 Q701.7283,208.3769 702.3221,208.1113 Q702.9158,207.83 703.5408,207.2519 L703.5408,209.9706 Z " fill="#000000"/><text fill="#000000" font-family="sans-serif" font-size="14" lengthAdjust="spacing" textLength="119.458" x="721.0721" y="209.1767">PortfolioManager</text><line style="stroke:#181818;stroke-width:0.5;" x1="636.47" x2="892.6321" y1="220.33" y2="220.33"/><rect fill="none" height="6" style="stroke:#C82930;stroke-width:1.0;" width="6" x="643.47" y="230.9784"/><text fill="#000000" font-family="sans-serif" font-size="14" lengthAdjust="spacing" textLength="139.9316" x="655.47" y="237.3251">assets: List&lt;Asset&gt;</text><line style="stroke:#181818;stroke-width:0.5;" x1="636.47" x2="892.6321" y1="244.6269" y2="244.6269"/><ellipse cx="646.47" cy="258.2753" fill="#84BE84" rx="3" ry="3" style="stroke:#038048;stroke-width:1.0;"/><text fill="#000000" font-family="sans-serif" font-size="14" lengthAdjust="spacing" textLength="205.0439" x="655.47" y="261.622">add_asset(asset: Asset): void</text><ellipse cx="646.47" cy="274.5722" fill="#84BE84" rx="3" ry="3" style="stroke:#038048;stroke-width:1.0;"/><text fill="#000000" font-family="sans-serif" font-size="14" lengthAdjust="spacing" textLength="232.1621" x="655.47" y="277.9189">remove_asset(asset: Asset): void</text></g><!--class StrategyManager--><g id="elem_StrategyManager"><rect codeLine="13" fill="#F1F1F1" height="113.1875" id="StrategyManager" rx="2.5" ry="2.5" style="stroke:#181818;stroke-width:0.5;" width="560.2148" x="464.44" y="7"/><ellipse cx="679.6216" cy="23" fill="#ADD1B2" rx="11" ry="11" style="stroke:#181818;stroke-width:1.0;"/><path d="M682.5904,28.6406 Q682.0123,28.9375 681.3716,29.0781 Q680.731,29.2344 680.0279,29.2344 Q677.5279,29.2344 676.1998,27.5938 Q674.8873,25.9375 674.8873,22.8125 Q674.8873,19.6875 676.1998,18.0313 Q677.5279,16.375 680.0279,16.375 Q680.731,16.375 681.3716,16.5313 Q682.0279,16.6875 682.5904,16.9844 L682.5904,19.7031 Q681.9654,19.125 681.3716,18.8594 Q680.7779,18.5781 680.1529,18.5781 Q678.8091,18.5781 678.1216,19.6563 Q677.4341,20.7188 677.4341,22.8125 Q677.4341,24.9063 678.1216,25.9844 Q678.8091,27.0469 680.1529,27.0469 Q680.7779,27.0469 681.3716,26.7813 Q681.9654,26.5 682.5904,25.9219 L682.5904,28.6406 Z " fill="#000000"/><text fill="#000000" font-family="sans-serif" font-size="14" lengthAdjust="spacing" textLength="121.3516" x="700.1216" y="27.8467">StrategyManager</text><line style="stroke:#181818;stroke-width:0.5;" x1="465.44" x2="1023.6548" y1="39" y2="39"/><rect fill="none" height="6" style="stroke:#C82930;stroke-width:1.0;" width="6" x="472.44" y="49.6484"/><text fill="#000000" font-family="sans-serif" font-size="14" lengthAdjust="spacing" textLength="186.9902" x="484.44" y="55.9951">strategies: List&lt;Strategy&gt;</text><line style="stroke:#181818;stroke-width:0.5;" x1="465.44" x2="1023.6548" y1="63.2969" y2="63.2969"/><ellipse cx="475.44" cy="76.9453" fill="#84BE84" rx="3" ry="3" style="stroke:#038048;stroke-width:1.0;"/><text fill="#000000" font-family="sans-serif" font-size="14" lengthAdjust="spacing" textLength="534.2148" x="484.44" y="80.292">create_strategy(name: String, indicator: String, conditions: String): Strategy</text><ellipse cx="475.44" cy="93.2422" fill="#84BE84" rx="3" ry="3" style="stroke:#038048;stroke-width:1.0;"/><text fill="#000000" font-family="sans-serif" font-size="14" lengthAdjust="spacing" textLength="287.082" x="484.44" y="96.5889">evaluate_strategy(asset: Asset): boolean</text><ellipse cx="475.44" cy="109.5391" fill="#84BE84" rx="3" ry="3" style="stroke:#038048;stroke-width:1.0;"/><text fill="#000000" font-family="sans-serif" font-size="14" lengthAdjust="spacing" textLength="518.8135" x="484.44" y="112.8857">backtest_strategy(historical_data: DataFrame, strategy: Strategy): Report</text></g><!--class BacktestReport--><g id="elem_BacktestReport"><rect codeLine="20" fill="#F1F1F1" height="96.8906" id="BacktestReport" rx="2.5" ry="2.5" style="stroke:#181818;stroke-width:0.5;" width="379.8623" x="1059.62" y="15.15"/><ellipse cx="1191.3451" cy="31.15" fill="#ADD1B2" rx="11" ry="11" style="stroke:#181818;stroke-width:1.0;"/><path d="M1194.3138,36.7906 Q1193.7357,37.0875 1193.0951,37.2281 Q1192.4545,37.3844 1191.7513,37.3844 Q1189.2513,37.3844 1187.9232,35.7438 Q1186.6107,34.0875 1186.6107,30.9625 Q1186.6107,27.8375 1187.9232,26.1813 Q1189.2513,24.525 1191.7513,24.525 Q1192.4545,24.525 1193.0951,24.6813 Q1193.7513,24.8375 1194.3138,25.1344 L1194.3138,27.8531 Q1193.6888,27.275 1193.0951,27.0094 Q1192.5013,26.7281 1191.8763,26.7281 Q1190.5326,26.7281 1189.8451,27.8063 Q1189.1576,28.8688 1189.1576,30.9625 Q1189.1576,33.0563 1189.8451,34.1344 Q1190.5326,35.1969 1191.8763,35.1969 Q1192.5013,35.1969 1193.0951,34.9313 Q1193.6888,34.65 1194.3138,34.0719 L1194.3138,36.7906 Z " fill="#000000"/><text fill="#000000" font-family="sans-serif" font-size="14" lengthAdjust="spacing" textLength="107.9121" x="1211.8451" y="35.9967">BacktestReport</text><line style="stroke:#181818;stroke-width:0.5;" x1="1060.62" x2="1438.4823" y1="47.15" y2="47.15"/><rect fill="none" height="6" style="stroke:#C82930;stroke-width:1.0;" width="6" x="1067.62" y="57.7984"/><text fill="#000000" font-family="sans-serif" font-size="14" lengthAdjust="spacing" textLength="94.0146" x="1079.62" y="64.1451">report: String</text><line style="stroke:#181818;stroke-width:0.5;" x1="1060.62" x2="1438.4823" y1="71.4469" y2="71.4469"/><ellipse cx="1070.62" cy="85.0953" fill="#84BE84" rx="3" ry="3" style="stroke:#038048;stroke-width:1.0;"/><text fill="#000000" font-family="sans-serif" font-size="14" lengthAdjust="spacing" textLength="353.8623" x="1079.62" y="88.442">calculate_performance(trades: List&lt;Trade&gt;): float</text><ellipse cx="1070.62" cy="101.3922" fill="#84BE84" rx="3" ry="3" style="stroke:#038048;stroke-width:1.0;"/><text fill="#000000" font-family="sans-serif" font-size="14" lengthAdjust="spacing" textLength="175.3623" x="1079.62" y="104.7389">generate_report(): String</text></g><!--class Asset--><g id="elem_Asset"><rect codeLine="26" fill="#F1F1F1" height="64.2969" id="Asset" rx="2.5" ry="2.5" style="stroke:#181818;stroke-width:0.5;" width="116.6514" x="706.22" y="353.37"/><ellipse cx="742.0927" cy="369.37" fill="#ADD1B2" rx="11" ry="11" style="stroke:#181818;stroke-width:1.0;"/><path d="M745.0615,375.0106 Q744.4833,375.3075 743.8427,375.4481 Q743.2021,375.6044 742.499,375.6044 Q739.999,375.6044 738.6708,373.9638 Q737.3583,372.3075 737.3583,369.1825 Q737.3583,366.0575 738.6708,364.4013 Q739.999,362.745 742.499,362.745 Q743.2021,362.745 743.8427,362.9013 Q744.499,363.0575 745.0615,363.3544 L745.0615,366.0731 Q744.4365,365.495 743.8427,365.2294 Q743.249,364.9481 742.624,364.9481 Q741.2802,364.9481 740.5927,366.0263 Q739.9052,367.0888 739.9052,369.1825 Q739.9052,371.2763 740.5927,372.3544 Q741.2802,373.4169 742.624,373.4169 Q743.249,373.4169 743.8427,373.1513 Q744.4365,372.87 745.0615,372.2919 L745.0615,375.0106 Z " fill="#000000"/><text fill="#000000" font-family="sans-serif" font-size="14" lengthAdjust="spacing" textLength="38.2676" x="760.7311" y="374.2167">Asset</text><line style="stroke:#181818;stroke-width:0.5;" x1="707.22" x2="821.8714" y1="385.37" y2="385.37"/><rect fill="none" height="6" style="stroke:#C82930;stroke-width:1.0;" width="6" x="714.22" y="396.0184"/><text fill="#000000" font-family="sans-serif" font-size="14" lengthAdjust="spacing" textLength="90.6514" x="726.22" y="402.3651">name: String</text><line style="stroke:#181818;stroke-width:0.5;" x1="707.22" x2="821.8714" y1="409.6669" y2="409.6669"/></g><!--class Strategy--><g id="elem_Strategy"><rect codeLine="30" fill="#F1F1F1" height="113.1875" id="Strategy" rx="2.5" ry="2.5" style="stroke:#181818;stroke-width:0.5;" width="138.5742" x="928.26" y="180.19"/><ellipse cx="964.225" cy="196.19" fill="#ADD1B2" rx="11" ry="11" style="stroke:#181818;stroke-width:1.0;"/><path d="M967.1937,201.8306 Q966.6156,202.1275 965.975,202.2681 Q965.3344,202.4244 964.6312,202.4244 Q962.1312,202.4244 960.8031,200.7838 Q959.4906,199.1275 959.4906,196.0025 Q959.4906,192.8775 960.8031,191.2213 Q962.1312,189.565 964.6312,189.565 Q965.3344,189.565 965.975,189.7213 Q966.6312,189.8775 967.1937,190.1744 L967.1937,192.8931 Q966.5687,192.315 965.975,192.0494 Q965.3812,191.7681 964.7562,191.7681 Q963.4125,191.7681 962.725,192.8463 Q962.0375,193.9088 962.0375,196.0025 Q962.0375,198.0963 962.725,199.1744 Q963.4125,200.2369 964.7562,200.2369 Q965.3812,200.2369 965.975,199.9713 Q966.5687,199.69 967.1937,199.1119 L967.1937,201.8306 Z " fill="#000000"/><text fill="#000000" font-family="sans-serif" font-size="14" lengthAdjust="spacing" textLength="59.9854" x="982.8839" y="201.0367">Strategy</text><line style="stroke:#181818;stroke-width:0.5;" x1="929.26" x2="1065.8342" y1="212.19" y2="212.19"/><rect fill="none" height="6" style="stroke:#C82930;stroke-width:1.0;" width="6" x="936.26" y="222.8384"/><text fill="#000000" font-family="sans-serif" font-size="14" lengthAdjust="spacing" textLength="40.1953" x="948.26" y="229.1851">id: int</text><rect fill="none" height="6" style="stroke:#C82930;stroke-width:1.0;" width="6" x="936.26" y="239.1353"/><text fill="#000000" font-family="sans-serif" font-size="14" lengthAdjust="spacing" textLength="90.6514" x="948.26" y="245.482">name: String</text><rect fill="none" height="6" style="stroke:#C82930;stroke-width:1.0;" width="6" x="936.26" y="255.4322"/><text fill="#000000" font-family="sans-serif" font-size="14" lengthAdjust="spacing" textLength="112.5742" x="948.26" y="261.7789">indicator: String</text><rect fill="none" height="6" style="stroke:#C82930;stroke-width:1.0;" width="6" x="936.26" y="271.7291"/><text fill="#000000" font-family="sans-serif" font-size="14" lengthAdjust="spacing" textLength="84.7041" x="948.26" y="278.0757">asset: Asset</text><line style="stroke:#181818;stroke-width:0.5;" x1="929.26" x2="1065.8342" y1="285.3775" y2="285.3775"/></g><!--link DataFetcher to Asset--><g id="link_DataFetcher_Asset"><path codeLine="37" d="M453.86,285.63 C539.78,312.97 636.9627,343.91 700.1027,364.01 " fill="none" id="DataFetcher-to-Asset" style="stroke:#181818;stroke-width:1.0;"/><polygon fill="#181818" points="705.82,365.83,698.4574,359.2884,701.0556,364.3133,696.0307,366.9115,705.82,365.83" style="stroke:#181818;stroke-width:1.0;"/></g><!--link PortfolioManager to Asset--><g id="link_PortfolioManager_Asset"><path codeLine="38" d="M764.55,285.42 C764.55,307.68 764.55,327.56 764.55,347.29 " fill="none" id="PortfolioManager-to-Asset" style="stroke:#181818;stroke-width:1.0;"/><polygon fill="#181818" points="764.55,353.29,768.55,344.29,764.55,348.29,760.55,344.29,764.55,353.29" style="stroke:#181818;stroke-width:1.0;"/></g><!--link StrategyManager to Strategy--><g id="link_StrategyManager_Strategy"><path codeLine="39" d="M827.39,120.65 C859.96,142.68 891.9606,164.3376 923.1006,185.4076 " fill="none" id="StrategyManager-to-Strategy" style="stroke:#181818;stroke-width:1.0;"/><polygon fill="#181818" points="928.07,188.77,922.8576,180.4135,923.9289,185.968,918.3744,187.0393,928.07,188.77" style="stroke:#181818;stroke-width:1.0;"/></g><!--link Strategy to Asset--><g id="link_Strategy_Asset"><path codeLine="40" d="M928.15,282.8 C922.54,286.39 916.96,289.95 911.55,293.37 C879.96,313.37 849.4373,332.3311 821.1673,349.7611 " fill="none" id="Strategy-to-Asset" style="stroke:#181818;stroke-width:1.0;"/><polygon fill="#181818" points="816.06,352.91,825.8202,351.5915,820.3161,350.2859,821.6216,344.7818,816.06,352.91" style="stroke:#181818;stroke-width:1.0;"/></g><!--link BacktestReport to Strategy--><g id="link_BacktestReport_Strategy"><path codeLine="41" d="M1179.02,112.5 C1144.07,136.24 1106.9727,161.4379 1072.1527,185.0979 " fill="none" id="BacktestReport-to-Strategy" style="stroke:#181818;stroke-width:1.0;"/><polygon fill="#181818" points="1067.19,188.47,1076.8822,186.7203,1071.3256,185.6599,1072.386,180.1033,1067.19,188.47" style="stroke:#181818;stroke-width:1.0;"/></g><!--SRC=[VLD1QiCm4Bpx5JhQrFc0A86MqbCBfUtTREIr8ofBGL82flJlNTcox2YbkHZjZcP6inkXm3ds11wUqOiZMlPTCFhj69nayuKZPn_UIjrFrJlM1LHZ4PIN0pOjNIo90Jrd3-5JSTOf0_uAVfJE6oi5gDiBDNCUh0yDvC48rWnrkpbNVFPdOS3YfoZ4PFdDMDyP9SqhQEYtlWEhu-o5HEydYNqq0stRJDtSySN8Dc8i3kQ2_y2I0Og5pFLZhk_ckiJ5mm9SR0XApsCJSMEfwLrBoZMJkgMWAAwr90pLl3JQBRMA9_b8YXTGvolQpFp168MW8_m0uikZyoiycz4cytfvqhYg4k4xdcW4QnwFaNAkfpZiTCosY5J4MGMx9xITiGDeWILnjocrpt3OP-lKeyPWe9bPoohn9XlJUvFwDjlRqIMOR3a5x_-w507vLBRB5aCE_Di_qcwtZusRNLrR-HQ5JXfjyhdYivIty5y0]--></g></svg>